<?xml version="1.0" standalone="no"?>
<!DOCTYPE svg PUBLIC "-//W3C//DTD SVG 20010904//EN"
 "http://www.w3.org/TR/2001/REC-SVG-20010904/DTD/svg10.dtd">
<svg version="1.0" xmlns="http://www.w3.org/2000/svg"
 width="96.000000pt" height="96.000000pt" viewBox="0 0 96.000000 96.000000"
 preserveAspectRatio="xMidYMid meet">
<metadata>
Created by potrace 1.11, written by Peter Selinger 2001-2013
</metadata>
<g transform="translate(0.000000,96.000000) scale(0.100000,-0.100000)"
fill="#000000" stroke="none">
<path d="M683 743 l-34 -38 -127 -2 c-165 -3 -224 -16 -270 -57 -49 -44 -74
-56 -115 -56 -47 0 -78 36 -92 108 -8 37 -16 57 -26 57 -11 0 -13 -13 -12 -54
4 -90 57 -148 152 -167 22 -5 30 -12 29 -28 -2 -45 4 -55 53 -105 47 -48 51
-55 46 -87 -7 -42 17 -110 44 -124 23 -13 109 -13 109 0 0 5 -11 17 -24 25
-34 23 -38 57 -9 85 13 13 27 36 30 51 4 24 25 38 56 39 4 0 7 -42 7 -93 0
-59 4 -97 12 -105 14 -14 108 -16 108 -2 0 5 -9 15 -20 22 -18 11 -20 24 -20
110 l0 97 76 50 c56 38 82 49 99 45 17 -4 31 2 53 24 22 22 37 28 56 25 20 -4
34 3 61 30 44 44 44 63 -1 82 -20 8 -56 35 -79 60 -37 40 -46 45 -84 45 -37 0
-48 -5 -78 -37z"/>
<path d="M96 315 c-15 -17 -38 -41 -52 -55 -53 -55 -25 -82 82 -78 59 2 79 7
87 20 14 22 -4 57 -43 83 -16 11 -33 28 -38 39 -8 19 -10 19 -36 -9z"/>
</g>
</svg>
